# xmcd
#
# Track frame offsets:
#	150
#	17384
#	37874
#	60751
#	80047
#	104091
#	124509
#	145642
#	154586
#	175522
#	200124
#
# Disc length: 2887 seconds
#
# Revision: 1
# Processed by: cddbd v1.5.2PL0 Copyright (c) Steve Scherf et al.
# Submitted via: audiograbber 1.83.01
#
DISCID=7f0b450b
DTITLE=Wolf Mail - Blue Fix
DYEAR=2005
DGENRE=Blues
TTITLE0=Love breakin` shuffle
TTITLE1=Big fix
TTITLE2=Blue rose
TTITLE3=So fine
TTITLE4=Piece of mind
TTITLE5=Slow down
TTITLE6=Angels are
TTITLE7=Hey Pippa
TTITLE8=Gotta know
TTITLE9=Rainbow bird blues
TTITLE10=Hideway [Live]
EXTD=
EXTT0=
EXTT1=
EXTT2=
EXTT3=
EXTT4=
EXTT5=
EXTT6=
EXTT7=
EXTT8=
EXTT9=
EXTT10=
PLAYORDER=
